<svg id="Layer_1" data-name="Layer 1" xmlns="http://www.w3.org/2000/svg" viewBox="0 0 631.8 498.24"><defs><style>.cls-1{fill:#e8e7e8;}</style></defs><path class="cls-1" d="M221,404.34q0,7.61-6.83,12.69a25.7,25.7,0,0,1-15.78,5.09H115.67V341.64h82.6q9.73,0,16.23,5.25T221,359.75v44.59Zm-26.58-42.11a15.32,15.32,0,0,0-9-2.79H138.05v44.88H185.4a15.21,15.21,0,0,0,9.23-2.74q3.75-2.73,3.75-6.42V368.48C198.38,366.17,197.05,364.09,194.41,362.23Z" transform="translate(-105.85 -41.43)"/><path class="cls-1" d="M253,341.3v80.59H230.6V341.3Z" transform="translate(-105.85 -41.43)"/><path class="cls-1" d="M286.72,341.64,320.52,402a1.47,1.47,0,0,0,2.47,0l32.9-60.33h26.64L338,422.12H303.62l-42.19-80.48Z" transform="translate(-105.85 -41.43)"/><path class="cls-1" d="M411.79,341.3v80.59H389.4V341.3Z" transform="translate(-105.85 -41.43)"/><path class="cls-1" d="M527.07,404.34q0,7.61-6.83,12.69a25.7,25.7,0,0,1-15.78,5.09H421.74V341.64h82.6q9.75,0,16.23,5.25t6.5,12.86v44.59Zm-26.59-42.11a15.3,15.3,0,0,0-9-2.79H444.13v44.88h47.34a15.22,15.22,0,0,0,9.24-2.74q3.75-2.73,3.75-6.42V368.48Q504.46,365,500.48,362.23Z" transform="translate(-105.85 -41.43)"/><path class="cls-1" d="M623.19,341.64v17.91H557.94v14.33H619.5v15H557.94v15.56h65.93v17.91H535.56v-80.7Z" transform="translate(-105.85 -41.43)"/><path class="cls-1" d="M737.64,404.34q0,7.61-6.83,12.69A25.7,25.7,0,0,1,715,422.12H632.32V341.64h82.6q9.74,0,16.23,5.25t6.49,12.86v44.59Zm-26.58-42.11a15.32,15.32,0,0,0-9-2.79H654.7v44.88h47.35a15.21,15.21,0,0,0,9.23-2.74q3.75-2.73,3.75-6.42V368.48C715,366.17,713.7,364.09,711.06,362.23Z" transform="translate(-105.85 -41.43)"/><path class="cls-1" d="M380.45,495.55q0,7.6-6.83,12.69a25.7,25.7,0,0,1-15.78,5.08h-65.7q-9.63,0-16-5.14t-6.38-12.63V450.62q0-6.81,6.61-12.29a23.4,23.4,0,0,1,15.44-5.48h65.93q9.84,0,16.28,5.19A16,16,0,0,1,380.45,451v44.59Zm-26.53-42.11a15,15,0,0,0-8.95-2.8h-39.4a15.48,15.48,0,0,0-9.4,3q-4,3-4,6.31v26.46a7.63,7.63,0,0,0,3.75,6.7,16.91,16.91,0,0,0,9.46,2.46H345a15,15,0,0,0,9.18-2.74q3.69-2.73,3.69-6.42V459.69Q357.84,456.23,353.92,453.44Z" transform="translate(-105.85 -41.43)"/><path class="cls-1" d="M412.06,432.85v53.51a7.64,7.64,0,0,0,3.75,6.71,16.91,16.91,0,0,0,9.46,2.46h39.62a15,15,0,0,0,9.18-2.74q3.69-2.75,3.69-6.43V432.85h22.61v62.7q0,7.6-6.83,12.69a25.7,25.7,0,0,1-15.78,5.08h-65.7q-9.63,0-16-5.14t-6.38-12.63v-62.7Z" transform="translate(-105.85 -41.43)"/><path class="cls-1" d="M706.36,518.94c0,11.44-9.57,20.73-21.35,20.73s-21.41-9.35-21.41-20.73c0-11.62,9.56-20.79,21.72-20.79A21.08,21.08,0,0,1,706.36,518.94Zm-38.57,0a17.19,17.19,0,1,0,17.47-17.16A17.27,17.27,0,0,0,667.79,518.94Zm6-11.56h13.94c3.83,0,5.43.36,6.79,1.43a6.11,6.11,0,0,1,2.1,4.77c0,2.74-1.36,4.58-4.2,5.6,2.53.71,3.27,2.08,3.58,6.13.25,3.16.25,3.34,1,4.71h-6.36a16,16,0,0,1-.55-3.93c-.37-3.52-1.24-4.41-4.26-4.41h-6.29V530h-5.74Zm12.52,9.83c2.41,0,3.65-.89,3.65-2.68s-1.12-2.5-3.65-2.5h-7.22v5.18Z" transform="translate(-105.85 -41.43)"/><path class="cls-1" d="M656.31,59.73c-10.1-11.7-24.14-18.32-38.81-18.3l-368,.42L220.77,77H430.29c18.1,0,35.51,8.48,48.63,23.71l.07.08H691.74Z" transform="translate(-105.85 -41.43)"/><path class="cls-1" d="M737.64,159.38l-37.4-47.78L192.08,112l-28.77,35.1H373c18.14,0,35.58,8.52,48.7,23.79H655.47a30.47,30.47,0,0,1-23,10.87l-497.86.35-28.77,35.11H315.29c18.08,0,35.47,8.47,48.58,23.66l.12.13H653.54a30.42,30.42,0,0,0,23-10.86l41.85-48.45h0l9.34-10.81h0l9.91-11.47Z" transform="translate(-105.85 -41.43)"/><path class="cls-1" d="M254.13,470.4q-6.78-5-17.07-5H189.27a9.54,9.54,0,0,1-5.49-1.46q-2.57-1.79-2.57-5.71,0-4.14,2.18-5.81a9.42,9.42,0,0,1,5.88-1.68H260.9V432.85H181.66A25.48,25.48,0,0,0,165.82,438q-6.78,5.14-6.77,12.85v8.82q0,11.5,6.49,16.75,5.6,4.47,16.12,4.46H230.9a7.56,7.56,0,0,1,5.6,2.13,7.43,7.43,0,0,1,2.13,5.49q0,6.82-7.75,6.82H159.05v18h79.47q10.06,0,16.22-5a16,16,0,0,0,6.16-13V483.44A15.47,15.47,0,0,0,254.13,470.4Z" transform="translate(-105.85 -41.43)"/><path class="cls-1" d="M596.57,452.44a9.37,9.37,0,0,1,5.87-1.68h71.64V432.85H594.83A25.52,25.52,0,0,0,579,438q-6.76,5.14-6.77,12.85v8.82q0,11.5,6.5,16.75,5.6,4.47,16.11,4.46h49.25a7.58,7.58,0,0,1,5.6,2.13,7.46,7.46,0,0,1,2.12,5.49q0,6.82-7.75,6.82H532.39l-.09-62.44H509.91v80.47H651.69q10.08,0,16.23-5a16,16,0,0,0,6.16-13V483.44a15.46,15.46,0,0,0-6.78-13q-6.76-5-17.06-5h-47.8A9.5,9.5,0,0,1,597,464q-2.58-1.79-2.58-5.71Q594.38,454.11,596.57,452.44Z" transform="translate(-105.85 -41.43)"/></svg>