<?xml version="1.0" encoding="UTF-8" standalone="no"?>
<!DOCTYPE svg PUBLIC "-//W3C//DTD SVG 1.1//EN" "http://www.w3.org/Graphics/SVG/1.1/DTD/svg11.dtd">
<svg width="100%" height="100%" viewBox="0 0 1269 669" version="1.1" xmlns="http://www.w3.org/2000/svg" xmlns:xlink="http://www.w3.org/1999/xlink" xml:space="preserve" xmlns:serif="http://www.serif.com/" style="fill-rule:evenodd;clip-rule:evenodd;stroke-linejoin:round;stroke-miterlimit:2;">
    <g transform="matrix(1,0,0,1,-326.32,-205.42)">
        <g id="Layer-1" serif:id="Layer 1">
            <g transform="matrix(1,0,0,1,1369.13,632.414)">
                <path d="M0,-34.276C-0.211,-34.329 -0.423,-34.382 -0.634,-34.461C0.053,-39.373 0.687,-44.285 1.373,-49.196C2.115,-54.316 2.867,-59.445 3.616,-64.572L3.644,-64.572C4.12,-67.688 4.568,-70.804 5.018,-73.92C5.704,-78.726 5.704,-78.858 10.458,-78.647C19.04,-78.303 27.649,-77.802 36.258,-77.353C36.359,-77.131 36.46,-76.909 36.561,-76.687C36.326,-76.411 36.093,-76.149 35.835,-75.868C35.598,-75.551 35.386,-75.314 35.254,-75.155C23.503,-61.529 11.751,-47.876 0,-34.276M-144.028,-41.283L-144.149,-41.151C-144.25,-41.189 -144.35,-41.226 -144.45,-41.264C-143.632,-45.278 -142.866,-49.292 -141.994,-53.306C-141.098,-57.431 -140.191,-61.543 -139.267,-65.653L-139.248,-65.654C-138.482,-69.008 -137.716,-72.362 -136.898,-75.716C-136.634,-76.798 -135.419,-78.462 -134.6,-78.488C-126.402,-78.697 -118.176,-78.623 -109.594,-78.621C-121.01,-66.132 -132.426,-53.668 -143.816,-41.204C-143.896,-41.231 -143.948,-41.257 -144.028,-41.283M-169.617,-109.861C-175.083,-109.782 -180.55,-109.201 -186.016,-108.857C-187.019,-108.805 -188.023,-108.857 -189.739,-108.857C-186.491,-113.082 -183.296,-117.229 -180.127,-121.375L-180.222,-121.375C-172.347,-131.628 -164.634,-141.677 -156.915,-151.718C-156.913,-151.72 -156.911,-151.723 -156.909,-151.725C-156.699,-151.647 -156.464,-151.542 -156.228,-151.463C-157.39,-146.367 -158.526,-141.27 -159.661,-136.173C-161.351,-128.779 -163.147,-121.385 -164.705,-113.965C-164.811,-113.436 -164.943,-112.961 -165.127,-112.565C-165.156,-112.44 -165.186,-112.307 -165.215,-112.179C-165.958,-110.526 -167.27,-109.881 -169.617,-109.861M-306.726,-39.75C-306.726,-39.749 -306.727,-39.749 -306.727,-39.748C-306.99,-39.88 -307.228,-39.985 -307.491,-40.118C-306.076,-45.398 -304.588,-50.651 -303.036,-55.88L-302.976,-55.884C-296.374,-78.198 -288.451,-100.037 -278.733,-121.375L-278.809,-121.375C-273.964,-132.069 -268.694,-142.644 -262.915,-153.089C-262.334,-151.584 -261.964,-150.845 -261.78,-150.079C-259.347,-140.506 -256.932,-130.937 -254.494,-121.375L-254.544,-121.375C-253.276,-116.357 -251.982,-111.366 -250.688,-106.375C-250.539,-105.803 -250.453,-105.268 -250.43,-104.76C-250.394,-103.266 -250.914,-102.007 -252.035,-100.751C-266.163,-84.907 -280.239,-69.062 -294.367,-53.244C-298.434,-48.675 -302.606,-44.239 -306.726,-39.75M168.026,-233.46C168.207,-233.202 168.388,-232.92 168.568,-232.66C168.566,-232.657 168.563,-232.654 168.56,-232.651C168.059,-232.069 167.583,-231.462 167.082,-230.881C167.055,-230.855 167.055,-230.829 167.029,-230.802C149.388,-209.65 131.774,-188.497 114.134,-167.318C114.13,-167.314 114.124,-167.305 114.12,-167.301C114.125,-167.322 114.129,-167.343 114.134,-167.364C113.896,-167.47 113.685,-167.575 113.448,-167.655C114.372,-171.589 115.137,-175.524 116.22,-179.406C120.525,-194.854 124.961,-210.277 129.292,-225.725C129.857,-227.725 130.743,-229.111 132.721,-229.596C133.005,-229.628 133.274,-229.659 133.511,-229.684C133.776,-229.71 133.987,-229.737 134.198,-229.763C144.84,-230.978 155.535,-232.298 166.178,-233.54C166.785,-233.619 167.419,-233.487 168.026,-233.46M223.911,-56.016C215.381,-65.364 206.878,-74.739 198.269,-84.06C197.477,-84.906 196.183,-85.592 195.047,-85.803C170.039,-89.923 145.057,-93.963 120.049,-98.03C117.752,-98.4 115.454,-98.849 112.523,-99.35C115.771,-103.259 118.438,-106.481 121.159,-109.702C124.433,-113.584 127.681,-117.493 130.982,-121.375L130.703,-121.375C154.267,-149.421 177.88,-177.434 201.332,-205.609C208.7,-214.429 215.46,-223.777 222.432,-232.915C223.648,-234.516 224.319,-235.6 224.427,-236.603L224.433,-236.603C224.437,-236.642 224.433,-236.68 224.436,-236.719C224.441,-236.804 224.445,-236.89 224.442,-236.974C224.44,-237.043 224.433,-237.112 224.425,-237.18C224.417,-237.247 224.408,-237.314 224.395,-237.381C224.379,-237.466 224.358,-237.551 224.334,-237.635C224.32,-237.683 224.304,-237.732 224.287,-237.781C224.252,-237.882 224.213,-237.985 224.166,-238.088C224.152,-238.118 224.137,-238.149 224.122,-238.179C224.064,-238.3 223.999,-238.423 223.925,-238.548C223.92,-238.556 223.915,-238.565 223.91,-238.573C223.561,-239.156 223.046,-239.792 222.347,-240.564C214.583,-249.041 206.581,-257.333 198.87,-265.863C198.762,-265.982 198.65,-266.078 198.541,-266.19C198.38,-266.357 198.22,-266.52 198.057,-266.671C197.92,-266.796 197.782,-266.913 197.644,-267.029C197.512,-267.138 197.378,-267.243 197.244,-267.343C195.1,-268.969 192.718,-269.473 189.865,-269.243C174.884,-268.128 159.862,-267.44 144.907,-266.016L144.926,-266.076C142.866,-265.891 140.806,-265.68 138.746,-265.442C124.724,-263.884 110.859,-260.953 96.943,-258.656C93.906,-258.18 92.48,-256.516 91.899,-253.506C85.297,-219.413 78.431,-185.374 71.961,-151.255C69.901,-140.27 68.449,-129.152 66.812,-118.061C66.6,-116.688 66.415,-115.367 66.204,-114.047C66.151,-113.598 66.072,-113.123 65.993,-112.674C65.941,-112.328 65.893,-112.006 65.842,-111.666C65.766,-111.379 65.679,-111.1 65.58,-110.829C65.498,-110.733 65.415,-110.637 65.333,-110.541C65.253,-110.357 65.174,-110.172 65.069,-109.987C65.069,-109.96 65.069,-109.934 65.042,-109.934C64.488,-108.878 63.722,-107.98 62.797,-107.32C62.771,-107.293 62.718,-107.267 62.692,-107.214C62.495,-106.985 62.303,-106.761 62.108,-106.533C60.652,-105.66 58.906,-105.245 57.014,-105.398C42.622,-106.56 28.203,-107.722 13.811,-108.646C10.589,-108.857 10.537,-110.257 10.933,-112.739C11.408,-115.618 11.883,-118.496 12.359,-121.375L12.306,-121.375C13.848,-130.775 15.352,-140.183 16.716,-149.625C16.839,-150.488 16.781,-151.535 16.552,-152.507L16.558,-152.512C16.519,-152.677 16.469,-152.835 16.421,-152.995C16.409,-153.031 16.401,-153.069 16.389,-153.106C16.328,-153.293 16.257,-153.473 16.181,-153.648C16.168,-153.68 16.157,-153.714 16.143,-153.745C15.958,-154.155 15.735,-154.522 15.475,-154.81C7.13,-163.947 -1.452,-172.82 -9.903,-181.825C-10.612,-182.594 -11.219,-182.946 -11.803,-182.982C-11.856,-182.987 -11.91,-183.004 -11.963,-183.004C-11.969,-183.004 -11.972,-182.998 -11.976,-182.997C-12.635,-182.964 -13.271,-182.511 -13.996,-181.72C-17.218,-178.207 -20.572,-174.853 -23.82,-171.368C-40.166,-153.806 -56.513,-136.272 -72.78,-118.605L-76.45,-114.618L-77.887,-113.058C-79.205,-112.163 -80.615,-111.841 -82.392,-111.841C-94.856,-111.894 -107.321,-111.841 -119.785,-111.762C-122.584,-111.736 -125.357,-111.472 -128.579,-111.313C-128.289,-113.056 -128.157,-114.297 -127.866,-115.486C-127.391,-117.44 -126.942,-119.421 -126.467,-121.375L-126.493,-121.375C-120.823,-145.149 -115.148,-168.904 -109.381,-192.633C-105.34,-209.376 -101.115,-226.039 -96.916,-242.728C-96.627,-243.885 -96.483,-244.949 -96.631,-245.959C-96.629,-245.962 -96.628,-245.964 -96.626,-245.967C-96.666,-246.219 -96.724,-246.47 -96.803,-246.718C-97.035,-247.461 -97.456,-248.177 -98.131,-248.881C-106.397,-257.464 -114.662,-266.073 -122.822,-274.761C-123.641,-275.632 -124.286,-276.047 -124.851,-276.09C-124.92,-276.096 -124.989,-276.099 -125.056,-276.094C-125.077,-276.092 -125.097,-276.088 -125.117,-276.085C-125.207,-276.074 -125.295,-276.052 -125.381,-276.021C-125.382,-276.021 -125.383,-276.02 -125.384,-276.02C-125.992,-275.798 -126.537,-275.099 -127.18,-274.012C-135.656,-259.752 -143.922,-245.386 -152.874,-231.443C-176.087,-195.317 -202.098,-161.251 -229.245,-128.03C-230.381,-126.631 -231.622,-125.31 -233.18,-123.568C-233.191,-123.608 -233.2,-123.639 -233.211,-123.678C-233.455,-124.579 -233.659,-125.277 -233.833,-125.894C-233.947,-126.302 -234.049,-126.685 -234.131,-127.053L-234.138,-127.046C-234.153,-127.11 -234.169,-127.173 -234.184,-127.236C-238.145,-142.791 -242,-158.371 -246.094,-173.872C-246.57,-175.641 -247.422,-177.44 -248.523,-178.976L-248.523,-178.995C-248.893,-179.497 -249.289,-179.973 -249.685,-180.395C-256.894,-188.106 -264.341,-195.58 -271.682,-203.159C-271.986,-203.475 -272.282,-203.802 -272.579,-204.144C-273.47,-205.171 -274.376,-206.334 -275.564,-207.78C-279.05,-203.344 -282.219,-199.699 -284.913,-195.712C-297.773,-176.724 -307.254,-155.968 -315.915,-134.842C-329.251,-102.308 -338.6,-68.532 -345.73,-34.149C-348.423,-21.133 -350.799,-8.038 -353.096,5.057C-353.097,5.06 -353.097,5.062 -353.097,5.064C-353.177,5.5 -353.223,5.986 -353.231,6.488C-353.256,7.992 -352.939,9.641 -352.147,10.533C-344.198,19.432 -336.012,28.094 -327.852,36.782C-327.531,37.121 -327.253,37.412 -326.991,37.681C-326.923,37.75 -326.853,37.822 -326.789,37.886C-326.693,37.983 -326.6,38.073 -326.511,38.159C-326.45,38.218 -326.389,38.275 -326.331,38.329C-326.245,38.409 -326.16,38.485 -326.08,38.554C-326.025,38.601 -325.971,38.643 -325.919,38.686C-325.843,38.746 -325.767,38.807 -325.696,38.857C-325.636,38.899 -325.58,38.931 -325.523,38.965C-325.458,39.005 -325.39,39.049 -325.327,39.08C-325.223,39.13 -325.123,39.168 -325.024,39.194C-324.987,39.203 -324.95,39.205 -324.914,39.211C-324.839,39.223 -324.763,39.232 -324.689,39.23C-324.65,39.229 -324.61,39.223 -324.572,39.218C-324.499,39.21 -324.426,39.195 -324.352,39.172C-324.33,39.166 -324.309,39.166 -324.287,39.159C-324.286,39.155 -324.286,39.152 -324.285,39.149C-323.635,38.918 -322.902,38.184 -321.699,36.939C-304.217,18.876 -286.497,1.05 -269.385,-17.356C-256.328,-31.385 -243.712,-45.838 -230.975,-60.181L-230.856,-60.188C-228.083,-63.33 -225.284,-66.447 -222.485,-69.563C-221.428,-70.751 -219.818,-71.992 -218.365,-72.15C-204.633,-73.629 -190.875,-74.923 -177.116,-76.112C-173.907,-76.387 -173.346,-76.102 -173.702,-73.691C-173.722,-73.596 -173.744,-73.493 -173.763,-73.402C-173.816,-73.112 -173.868,-72.821 -173.921,-72.584C-176.853,-57.769 -179.784,-42.981 -182.688,-28.166C-184.696,-17.92 -187.31,-7.726 -186.597,2.837C-186.491,4.765 -185.699,7.036 -184.405,8.435C-176.192,17.519 -167.742,26.366 -159.37,35.318C-158.948,35.767 -158.552,36.137 -158.182,36.322C-158.172,36.268 -158.162,36.213 -158.152,36.159C-157.456,36.5 -156.749,36.326 -155.805,35.299C-142.971,21.171 -130.005,7.122 -117.118,-6.98C-99.131,-26.631 -81.138,-46.258 -63.118,-65.871C-63.019,-65.869 -62.923,-65.867 -62.824,-65.866C-59.048,-70.012 -55.219,-74.158 -51.416,-78.303C-50.597,-79.202 -49.092,-79.914 -47.877,-79.941C-42.279,-80.099 -36.68,-79.941 -31.082,-79.994C-29.212,-79.994 -28.381,-79.34 -28.334,-77.86C-28.335,-77.856 -28.334,-77.853 -28.335,-77.849C-28.335,-77.637 -28.362,-77.426 -28.388,-77.189C-28.626,-75.419 -28.89,-73.65 -29.154,-71.881L-29.207,-71.458L-29.26,-71.088C-29.312,-70.824 -29.339,-70.587 -29.365,-70.349C-30.633,-61.344 -31.98,-52.339 -32.93,-43.307C-34.594,-28.017 -35.73,-12.648 -37.208,2.668C-37.394,4.653 -37.135,6.405 -36.548,8.019C-36.534,8.058 -36.521,8.096 -36.506,8.135C-36.361,8.523 -36.195,8.903 -36.01,9.275C-35.924,9.45 -35.841,9.626 -35.747,9.797C-35.647,9.977 -35.539,10.154 -35.43,10.33C-35.3,10.543 -35.163,10.753 -35.021,10.962C-34.928,11.096 -34.841,11.232 -34.743,11.365C-34.509,11.685 -34.256,12 -33.994,12.312C-33.895,12.429 -33.794,12.546 -33.691,12.662C-33.398,12.995 -33.095,13.327 -32.772,13.654C-24.929,21.629 -17.165,29.684 -9.48,37.843L-9.454,37.87C-9.296,38.055 -9.111,38.187 -8.979,38.319L-8.977,38.307C-7.621,39.425 -6.766,38.78 -5.704,37.553C2.931,27.571 11.567,17.589 20.176,7.607C32.11,-6.203 44.045,-20.012 56.534,-34.508C47.982,58.297 46.084,150.179 60.658,241.823C61.398,238.496 61.715,235.142 61.953,231.815C62.85,217.898 63.59,204.007 64.672,190.117C66.151,170.998 67.841,151.879 69.558,132.76C71.221,114.38 72.859,95.974 74.839,77.647C77.348,54.777 79.936,31.935 82.973,9.119C86.135,-14.704 89.737,-38.504 93.17,-62.302C93.186,-62.302 93.203,-62.301 93.219,-62.301C93.589,-64.783 93.959,-67.292 94.302,-69.774C94.619,-71.913 95.411,-72.679 97.603,-72.441C105.472,-71.517 113.368,-70.989 121.185,-69.853C150.946,-65.549 180.681,-61.112 210.417,-56.676C215.144,-55.963 219.818,-55.012 225.205,-54.061C224.465,-55.171 224.254,-55.646 223.911,-56.016" style="fill:rgb(254,30,51);fill-rule:nonzero;"/>
            </g>
            <g transform="matrix(1,0,0,1,1384.6,356.38)">
                <path d="M0,64.302C1.062,63.136 1.929,62.258 2.714,61.311C10.317,52.129 17.887,42.918 25.511,33.752C28.325,30.369 28.454,29.832 25.33,26.64C19.054,20.228 12.677,13.916 6.337,7.567C3.823,5.049 1.297,2.543 -1.255,0C-1.773,0.351 -2.192,0.518 -2.445,0.823C-11.009,11.127 -19.601,21.408 -28.015,31.833C-28.61,32.571 -28.391,34.87 -27.681,35.62C-18.63,45.182 -9.421,54.593 0,64.302" style="fill:rgb(254,30,51);fill-rule:nonzero;"/>
            </g>
            <g transform="matrix(1,0,0,1,561.24,513.82)">
                <path d="M0,52.08C3.25,41.55 6.05,31.83 9.21,22.24C16.61,-0.1 24.21,-22.36 31.61,-44.67C32.8,-48.21 34.96,-50.4 38.37,-51.65C50.99,-56.29 63.98,-59.38 77.45,-60.31C81.12,-60.57 84.77,-60.84 88.75,-61.13C59.15,-23.39 29.89,13.95 0,52.08M534.37,-279.03C534.37,-279.04 534.38,-279.05 534.38,-279.06C534.25,-279.19 534.15,-279.32 534.01,-279.46C527.76,-286.19 521.66,-293.06 515.56,-299.92C513.73,-301.98 512,-304.13 510.26,-306.27C509.68,-306.98 509.09,-307.69 508.51,-308.4L506.6,-308.4C491.29,-286.35 477.58,-263.3 465.2,-239.48C463.96,-237.1 462.74,-234.72 461.5,-232.34C461.47,-232.3 461.43,-232.24 461.42,-232.17C449.15,-208.44 437.04,-184.63 425.11,-160.7C410.37,-131.12 396.01,-101.36 381.48,-71.65C379.24,-67.09 376.97,-62.52 374.72,-57.95C374.91,-63.23 375.62,-68.32 376.49,-73.42C381.14,-101.1 385.84,-128.8 390.57,-156.47C390.7,-157.26 390.72,-157.97 390.64,-158.66C390.64,-158.66 390.64,-158.67 390.65,-158.67C390.64,-158.71 390.63,-158.74 390.63,-158.77C390.54,-159.41 390.36,-160.01 390.07,-160.58C390.05,-160.62 390.03,-160.66 390.01,-160.7C389.86,-160.98 389.68,-161.27 389.48,-161.54C389.48,-161.55 389.48,-161.55 389.47,-161.55C389.25,-161.86 389.01,-162.16 388.72,-162.47C380.4,-171.15 372.16,-179.95 363.98,-188.77C363.44,-189.34 362.98,-189.71 362.56,-189.87C362.53,-189.88 362.51,-189.89 362.49,-189.9C362.35,-189.94 362.23,-189.97 362.1,-189.97L362.07,-189.97C361.96,-189.96 361.85,-189.94 361.74,-189.9C361.71,-189.88 361.67,-189.87 361.63,-189.85C361.61,-189.84 361.59,-189.84 361.57,-189.82L361.57,-189.81C361.2,-189.61 360.82,-189.2 360.41,-188.54C354.36,-178.85 348.13,-169.29 342.22,-159.57C314.65,-114.33 289.53,-67.78 266.98,-19.9C253.83,7.99 241.34,36.19 228.58,64.26C226.47,68.91 224.49,73.64 222.17,79C221.37,77.33 220.85,76.44 220.5,75.51C214.77,60.51 209.09,45.49 203.34,30.51C202.73,28.94 202.84,27.72 203.5,26.48C203.51,26.47 203.52,26.46 203.52,26.45C203.71,26.08 203.97,25.71 204.26,25.31C224.7,-1.62 244.01,-29.35 262.02,-57.98C264.39,-61.78 264.45,-62.1 261.36,-65.29C253.14,-73.79 244.88,-82.27 236.61,-90.72C236.14,-91.22 235.5,-91.59 235.03,-91.94C219.44,-69.05 203.93,-46.3 188.44,-23.54C187.57,-22.28 186.73,-21.01 185.86,-19.74C185.41,-19.87 184.98,-19.98 184.54,-20.08C173,-53.17 161.46,-86.26 149.91,-119.35C149.31,-118.69 149.12,-118.08 149.2,-117.53C150.44,-106.75 151.21,-95.87 153.11,-85.18C158,-57.53 163.33,-29.99 168.61,-2.42C169.09,0.07 168.95,1.96 167.43,3.96C166.5,5.13 165.94,5.83 165.94,5.83C150.42,24.87 134.99,43.98 119.49,63.05C117.25,65.8 114.79,68.41 112.44,71.08C112.06,71.55 111.69,71.99 111.32,72.44L112.15,68.3L112.2,68.01C122.79,27.13 133.38,-13.78 144.08,-54.63C144.77,-57.22 144.42,-59.07 142.65,-60.94C134.41,-69.71 126.28,-78.58 117.99,-87.32C117.67,-87.64 117.27,-87.96 116.85,-88.19C116.85,-88.17 116.84,-88.14 116.83,-88.12C116.79,-88.14 116.76,-88.16 116.72,-88.18C116.71,-88.18 116.7,-88.19 116.69,-88.19C115.97,-88.59 115.16,-88.87 114.42,-88.93C102.99,-90.1 91.55,-91.5 80.07,-92.05C63.3,-92.84 46.53,-92.1 29.92,-89.01C21.92,-87.51 13.97,-85.66 6.81,-81.59C5.07,-80.59 3.3,-78.69 2.64,-76.81C-5.15,-53.92 -13.1,-31.07 -20.31,-7.99C-33.17,33.26 -44.95,74.79 -50.33,117.87C-50.66,120.41 -50.2,122.34 -48.75,124.16C-48.54,124.43 -48.31,124.7 -48.04,124.97C-40.93,132.34 -33.91,139.81 -26.94,147.28C-25.3,149.05 -24.01,151.09 -22.16,153.52C14.96,102.75 51.58,53.59 90.36,5.25C90.16,6.1 89.93,6.94 89.73,7.77C85.14,26.63 80.33,44.77 76.45,63.12C72.54,81.58 69.66,100.25 66.47,118.87C66.3,119.82 66.48,121.06 66.91,122.06C66.81,122.16 66.72,122.26 66.62,122.36C66.78,123.15 67.13,123.89 67.58,124.37C75.97,133.56 84.56,142.59 93.01,151.75C94.56,153.42 95.73,153.66 97.39,151.86C107.21,141.11 117.41,130.68 126.89,119.62C145.11,98.41 162.93,76.84 180.92,55.42C181.37,54.92 181.95,54.52 182.71,53.89C183.16,55.07 183.53,55.94 183.8,56.82C190.19,77.6 196.52,98.41 203.05,119.16C203.25,119.83 203.53,120.48 203.85,121.13C203.84,121.13 203.84,121.14 203.84,121.14C203.89,121.25 203.96,121.35 204.01,121.46C204.12,121.66 204.23,121.87 204.35,122.07C204.42,122.19 204.48,122.3 204.55,122.42C204.76,122.76 204.97,123.08 205.2,123.4C205.23,123.45 205.27,123.5 205.3,123.54C205.51,123.84 205.73,124.12 205.95,124.4C206,124.46 206.06,124.53 206.11,124.6C206.37,124.91 206.63,125.21 206.9,125.5C213.4,132.47 220.11,139.21 226.68,146.07C228.9,148.37 230.99,150.83 233.57,153.68C249.47,113.86 266.14,75.09 284.2,36.93C302.26,-1.31 321.33,-39.02 342.08,-76.75C339.47,-55.47 336.72,-35.09 334.5,-14.69C333.29,-3.28 332.87,8.23 332.21,19.69C332.1,21.52 332.34,23.21 332.88,24.79C332.93,24.95 332.98,25.12 333.04,25.27C333.13,25.49 333.23,25.71 333.32,25.93C333.42,26.13 333.51,26.33 333.61,26.53C333.71,26.72 333.82,26.92 333.93,27.11C334.05,27.32 334.18,27.52 334.32,27.72C334.44,27.91 334.56,28.09 334.69,28.27C334.84,28.48 335,28.68 335.17,28.88C335.31,29.05 335.44,29.22 335.59,29.39C335.81,29.64 336.05,29.89 336.3,30.13C336.4,30.23 336.49,30.34 336.59,30.44C340.42,34.09 343.72,38.21 347.34,42.06C351.8,46.87 356.29,51.62 360.83,56.32C361.22,56.73 361.57,57.04 361.88,57.28C361.9,57.3 361.91,57.31 361.93,57.32C362.02,57.39 362.1,57.45 362.19,57.5C362.22,57.52 362.24,57.54 362.27,57.55C362.34,57.6 362.42,57.64 362.49,57.67C362.53,57.69 362.56,57.7 362.6,57.72C362.66,57.74 362.72,57.76 362.78,57.78C362.87,57.8 362.96,57.82 363.05,57.82L363.11,57.82C363.19,57.81 363.26,57.81 363.33,57.79C363.35,57.78 363.37,57.78 363.39,57.77C363.47,57.75 363.54,57.72 363.62,57.68C363.62,57.67 363.63,57.67 363.63,57.67C364.15,57.38 364.64,56.67 365.24,55.53C365.72,54.6 366.17,53.65 366.64,52.67C374.83,35.3 382.96,17.89 391.2,0.54C399.68,-17.31 408.18,-35.13 416.71,-52.93C419.59,-58.93 422.57,-64.87 425.58,-71.02C422.05,-46.33 418.27,-21.93 415.07,2.55C412.06,25.55 409.45,48.61 407.1,71.71C405.38,88.8 404.19,105.96 403.14,123.13C401.9,143.12 400.39,163.16 400.26,183.18C400.05,214.1 400.87,245.03 401.4,275.95C401.5,282.9 402.06,289.87 402.74,296.79C404.49,313.9 406.36,330.98 408.29,348.07C408.74,352.22 409.53,356.34 410.19,360.48L411.14,360.4C411.51,355.6 411.91,350.79 412.25,345.96C413.17,333.44 413.94,320.92 415,308.41C416.5,290.45 418.16,272.49 419.88,254.53C421.54,237 423.16,219.44 425.14,201.93C427.88,177.71 430.71,153.52 433.93,129.36C437.12,105.2 440.66,81.09 444.36,56.98C449.75,21.91 456.67,-12.87 464.77,-47.44C475.02,-91.25 486.3,-134.77 500.19,-177.6C510.62,-209.63 522.21,-241.27 535.15,-272.38C536.26,-275.05 536.1,-276.96 534.37,-279.03" style="fill:rgb(254,30,51);fill-rule:nonzero;"/>
            </g>
            <g transform="matrix(1,0,0,1,531.71,586.98)">
                <path d="M0,-127.27C-17.74,-85.09 -33.27,-42.08 -47.42,1.39C-57.88,33.5 -66.99,66.09 -75.76,98.7C-89.25,148.88 -101.96,199.24 -115,249.54C-115.27,250.52 -115.63,251.47 -116.16,253.06C-117.62,251.66 -118.75,250.65 -119.78,249.6C-127.41,241.7 -135.04,233.81 -142.68,225.94C-144.67,223.88 -145.81,221.54 -146.42,219.04C-146.43,219 -146.44,218.96 -146.45,218.91L-146.45,218.9C-146.96,216.72 -147.06,214.43 -146.95,212.12C-146.37,200.22 -145.69,188.31 -144.66,176.45C-143.34,161.63 -141.8,146.82 -140.01,132.06C-137.55,112.07 -134.86,92.08 -132.01,72.14C-128.94,50.62 -125.64,29.12 -122.26,7.65C-118.25,-17.99 -114.05,-43.63 -109.93,-69.25C-109.88,-69.67 -109.93,-70.07 -109.93,-70.49C-110.22,-70.6 -110.51,-70.73 -110.8,-70.83L-110.8,-70.86C-132.75,-21.82 -154.67,27.22 -176.82,76.81C-186.57,66.59 -195.97,56.72 -205.39,46.81L-205.39,-6.43C-205.24,-7.98 -205,-9.54 -204.92,-11.13C-203.89,-29.95 -202.97,-48.84 -201.78,-67.66C-200.88,-82.08 -199.77,-96.5 -198.45,-110.89C-197.05,-126.1 -195.44,-141.34 -193.59,-156.53C-191.19,-176.62 -188.86,-196.77 -185.77,-216.79C-181.47,-244.83 -176.53,-272.8 -171.83,-300.79C-171.72,-301.37 -171.36,-301.9 -170.99,-302.72C-170.17,-302.06 -169.45,-301.61 -168.9,-301.03C-160.37,-291.95 -151.81,-282.91 -143.44,-273.7C-142.57,-272.75 -142.33,-270.77 -142.54,-269.39C-144.87,-255.11 -147.59,-240.9 -149.75,-226.61C-153.42,-202.32 -157.02,-177.97 -160.26,-153.6C-163.04,-132.71 -165.41,-111.74 -167.66,-90.74C-169.3,-75.64 -170.4,-60.51 -171.72,-45.38C-172.15,-40.65 -172.54,-35.92 -172.46,-30.98C-172.07,-31.72 -171.65,-32.44 -171.3,-33.2C-160.82,-56.15 -150.49,-79.18 -139.85,-102.05C-132.01,-118.9 -124.06,-135.72 -115.58,-152.25C-108.08,-166.9 -99.76,-181.14 -91.87,-195.58C-90.6,-197.93 -89.57,-197.8 -87.93,-195.95C-79.11,-185.84 -70.29,-175.75 -61.31,-165.8C-60.28,-164.65 -59.98,-163.54 -59.97,-162.39C-59.97,-161.69 -60.08,-160.97 -60.21,-160.22C-63.43,-141.18 -66.75,-122.14 -69.9,-103.1C-74.49,-75.51 -78.95,-47.91 -83.47,-20.29C-83.47,-20.29 -83.5,-20.16 -83.52,-19.89C-83.63,-19.12 -83.88,-17.24 -84.25,-14.4C-83.66,-16.41 -83.27,-17.74 -83.1,-18.31C-82.7,-19.18 -82.28,-20 -81.91,-20.9C-64.8,-64.23 -45.94,-106.8 -25.66,-148.74C-1.1,-199.57 25.78,-249.09 56.39,-296.57C74.58,-324.82 94.1,-352.13 115.43,-378.11C115.93,-378.75 116.15,-379.59 116.49,-380.33C116.89,-380.01 117.28,-379.7 117.65,-379.35C116.54,-377.14 115.51,-374.89 114.35,-372.7C90.5,-327.36 67.79,-281.46 46.75,-234.75C30.72,-199.12 15.16,-163.26 0,-127.27" style="fill:rgb(254,30,51);fill-rule:nonzero;"/>
            </g>
        </g>
    </g>
</svg>
