<?xml version="1.0" encoding="UTF-8" standalone="no"?>
<!DOCTYPE svg PUBLIC "-//W3C//DTD SVG 1.1//EN" "http://www.w3.org/Graphics/SVG/1.1/DTD/svg11.dtd">
<svg width="100%" height="100%" viewBox="0 0 325 325" version="1.1" xmlns="http://www.w3.org/2000/svg" xmlns:xlink="http://www.w3.org/1999/xlink" xml:space="preserve" xmlns:serif="http://www.serif.com/" style="fill-rule:evenodd;clip-rule:evenodd;stroke-linecap:round;stroke-linejoin:round;stroke-miterlimit:1.5;">
    <g transform="matrix(1,0,0,1,-797.5,-377.5)">
        <g id="Layer2" transform="matrix(0.32,0,0,0.32,487.68,379.385)">
            <g opacity="0.5">
                <g transform="matrix(1,0,0,1,516,-58.0787)">
                    <circle cx="960" cy="560" r="500" style="fill:none;stroke:rgb(254,30,51);stroke-width:15.63px;"/>
                </g>
                <path d="M1475.75,854.844C1465.46,854.726 1135.19,848.152 1102,490C1102,490 1094.15,258.067 1295,155C1295,155 1148.73,271.279 1202,462C1241.91,604.903 1368,648 1368,648L1367,631L1300,582L1300,567L1398,567L1398,530L1301,489L1301,472L1398,472L1398,439L1303,396L1303,379C1303,379 1403.37,355.645 1463,312L1463,295C1463,295 1474.38,299.308 1468,265C1466.45,256.692 1471,248 1471,248C1471,248 1468.07,236.633 1472,225C1475.93,213.367 1472,173 1472,173C1472,173 1465.53,148.661 1476,149L1476.12,148.997C1486.42,148.851 1480,173 1480,173C1480,173 1476.07,213.367 1480,225C1483.93,236.633 1481,248 1481,248C1481,248 1485.55,256.692 1484,265C1477.62,299.308 1489,295 1489,295L1489,312C1548.63,355.645 1649,379 1649,379L1649,396L1554,439L1554,472L1651,472L1651,489L1554,530L1554,567L1652,567L1652,582L1585,631L1584,648C1584,648 1710.09,604.903 1750,462C1803.27,271.279 1657,155 1657,155C1857.85,258.067 1850,490 1850,490C1816.28,853.827 1476,854.846 1476,854.846L1475.75,854.844Z" style="fill:rgb(254,30,51);"/>
            </g>
        </g>
    </g>
</svg>
